# xmcd
#
# Track frame offsets:
#	150
#	12445
#	25405
#	39350
#	56450
#	69587
#	84210
#	99952
#	110437
#	124352
#	138010
#	152952
#	166430
#	182295
#
# Disc length: 2599 seconds
#
# Revision: 3
# Processed by: cddbd v1.5.2PL0 Copyright (c) Steve Scherf et al.
# Submitted via: audiograbber 1.83.01
#
DISCID=aa0a250e
DTITLE=Various Artist - Hot Hits Jukin' Vol. 1
DYEAR=1900
DGENRE=
TTITLE0=Ken Mellons - Jukebox Junkie
TTITLE1=Alan Jackson - Don't Rock The Jukebox
TTITLE2=Mark Chesnutt - Bubba Shot The Jukebox
TTITLE3=Joe Diffie - Prop Me Up Beside The Jukebox (If I Die)
TTITLE4=John Anderson - Straight Tequila Night
TTITLE5=Doug Supernaw - Honky Tonkin' Fool
TTITLE6=Doug Stone - A Jukebox With A Country Song
TTITLE7=Mike Henderson - If The Jukebox Took Teardrops
TTITLE8=Mark Chesnutt - Brother Jukebox
TTITLE9=Gene Watson - The Jukebox Played Along
TTITLE10=Travis Tritt - If Hell Had A Jukebox
TTITLE11=Doug Stone - Warning Labels
TTITLE12=Alabama - Jukebox In My Mind
TTITLE13=Commander Cody - Truck Drivin' Man
EXTD=
EXTT0=
EXTT1=
EXTT2=
EXTT3=
EXTT4=
EXTT5=
EXTT6=
EXTT7=
EXTT8=
EXTT9=
EXTT10=
EXTT11=
EXTT12=
EXTT13=
PLAYORDER=
